<?xml version="1.0" standalone="no"?>
<!DOCTYPE svg PUBLIC "-//W3C//DTD SVG 20010904//EN"
 "http://www.w3.org/TR/2001/REC-SVG-20010904/DTD/svg10.dtd">
<svg version="1.0" xmlns="http://www.w3.org/2000/svg"
 width="263.000000pt" height="263.000000pt" viewBox="0 0 263.000000 263.000000"
 preserveAspectRatio="xMidYMid meet">
<metadata>
Created by potrace 1.11, written by Peter Selinger 2001-2013
</metadata>
<g transform="translate(0.000000,263.000000) scale(0.100000,-0.100000)"
fill="#000000" stroke="none">
<path d="M410 1870 l0 -510 135 0 135 0 -2 508 -3 507 -132 3 -133 3 0 -511z"/>
<path d="M780 1870 l0 -510 115 0 115 0 1 303 c0 179 4 294 9 282 5 -11 25
-137 45 -280 20 -143 39 -270 42 -283 5 -22 9 -23 86 -20 l82 3 41 305 42 305
1 -307 1 -308 115 0 115 0 0 510 0 510 -170 0 c-129 0 -170 -3 -170 -12 -1
-26 -58 -433 -60 -428 -1 3 -16 102 -33 220 l-32 215 -172 3 -173 2 0 -510z"/>
<path d="M1700 1870 l0 -510 130 0 130 0 2 203 3 202 85 6 c194 15 227 65 218
330 -5 117 -8 142 -28 176 -45 80 -129 102 -392 103 l-148 0 0 -510z m326 316
c16 -13 19 -27 19 -110 0 -103 -8 -123 -55 -128 l-25 -3 -3 114 c-1 63 0 121
2 128 7 17 37 17 62 -1z"/>
<path d="M1250 1235 c-96 -27 -162 -85 -189 -165 -17 -50 -25 -421 -13 -572
13 -153 32 -203 92 -247 61 -44 104 -55 215 -56 120 0 182 23 244 90 48 52 59
89 67 228 l7 107 -136 0 -137 0 0 -112 c0 -62 -4 -118 -8 -124 -15 -22 -42
-24 -62 -4 -19 19 -20 35 -20 336 0 198 4 322 10 335 13 24 65 26 74 3 3 -9 6
-74 6 -145 l0 -129 137 0 136 0 -6 128 c-10 199 -31 246 -137 299 -81 41 -193
52 -280 28z"/>
<path d="M475 1218 c-2 -7 -31 -224 -65 -483 -33 -259 -63 -482 -66 -498 l-6
-27 141 0 141 0 0 38 c0 20 3 61 6 90 l7 52 48 0 49 0 0 -59 c0 -32 3 -73 6
-90 l7 -31 134 0 134 0 -6 33 c-9 49 -145 968 -145 978 0 5 -86 9 -190 9 -144
0 -192 -3 -195 -12z m220 -433 c8 -94 16 -179 18 -190 2 -17 -3 -19 -38 -16
-22 1 -41 4 -43 6 -2 2 6 83 17 180 12 98 21 182 21 188 0 6 2 8 5 6 2 -3 11
-81 20 -174z"/>
<path d="M1720 1125 l0 -105 75 0 75 0 0 -405 0 -405 135 0 135 0 0 405 0 405
75 0 75 0 0 105 0 105 -285 0 -285 0 0 -105z"/>
</g>
</svg>
